<svg width="50" height="52" fill="none" xmlns="http://www.w3.org/2000/svg"><g clip-path="url(#a)"><path d="M42.883 6.925 7.09 6.818l-.128-3.364L7.273.85l35.61.059v6.016Z" fill="#0C6FAD"/><path d="m49.997 17.727-.005-1.9-.977-5.373H.985L0 15.91l.143 7.11h1.675v28.896h46.364V23.019h1.76L50 17.727h-.003ZM.903 15.989l.84-4.626h46.515l.833 4.546v1.818H.908l-.005-1.738Zm5.462 35.017V29.642h11.818v21.364H6.365ZM46.176 23.02h1.097v27.987H19.092V28.734H5.455v22.273H2.728V23.02h1.098m38.26 0h2.648Zm-4.09 0h2.674Zm-4.092 0h2.65Zm-4.09 0h2.65Zm-4.09 0h2.649Zm-4.09 0h2.65Zm-4.091 0h2.65Zm-4.09 0h2.65Zm-4.09 0h2.649Zm-4.092 0h2.65Zm5.643-15.292v1.818h.909V7.727h26.363v1.818h.909V7.727h3.37l1.176-1.176V1.176L42.465 0H7.54L6.364 1.176v5.376L7.54 7.728h3.369l.005-.001ZM7.273 1.552l.643-.643h34.168l.643.643v4.623l-.643.643H7.917l-.643-.643V1.552h-.001Zm1.175 38.09h3.37v.91H8.825l-.188.187v.72h-.91v-1.097l.722-.72h-.001Z" fill="#000"/><path d="M49 17H1v5h48v-5Z" fill="#fff"/><path d="M25.206 8.53a7.363 7.363 0 1 0 .001 14.726 7.363 7.363 0 0 0-.002-14.726Zm0 13.616a6.254 6.254 0 0 1 0-12.508 6.254 6.254 0 0 1 0 12.508Z" fill="#fff"/><path d="M25.206 9.539a6.354 6.354 0 1 0 0 12.707 6.354 6.354 0 0 0 0-12.707Zm3.48 5.284-3.89 3.89a.656.656 0 0 1-.93 0l-2.138-2.138a.656.656 0 0 1 0-.93l.166-.165a.656.656 0 0 1 .929 0l1.507 1.507 3.26-3.26a.656.656 0 0 1 .929 0l.166.165a.658.658 0 0 1 0 .93Z" fill="#28A745"/><path d="m30.05 31.406-3.274 3.273.579.578 3.273-3.273-.579-.578ZM32.913 31.814l-6.546 6.546.579.578 6.546-6.545-.579-.579Z" fill="#000"/><path d="M42.78 28.83H24.443l-1.058 1.059v15.305h20.454V29.89l-1.057-1.058Zm.24 15.546H24.201V30.228l.58-.579h17.66l.58.578v14.149Z" fill="#000"/><path d="m30.05 31.406-3.274 3.273.579.578 3.273-3.273-.579-.578ZM32.913 31.81l-6.546 6.546.579.578 6.546-6.545-.579-.579Z" fill="#000"/><path d="m30.05 31.406-3.274 3.273.579.578 3.273-3.273-.579-.578ZM32.913 31.81l-6.546 6.546.579.578 6.546-6.545-.579-.579ZM.902 15.892v1.18h16.019v-1.18H.902ZM33.903 15.892v1.18H49.51v-1.18H33.903Z" fill="#000"/></g><defs><clipPath id="a"><path fill="#fff" d="M0 0h50v51.915H0z"/></clipPath></defs></svg>