<svg width="15" height="15" viewBox="0 0 15 15" fill="none" xmlns="http://www.w3.org/2000/svg"><g><path d="M15 7.5C15 9.48912 14.2098 11.3968 12.8033 12.8033C11.3968 14.2098 9.48912 15 7.5 15C5.51088 15 3.60322 14.2098 2.1967 12.8033C0.790176 11.3968 0 9.48912 0 7.5C0 5.51088 0.790176 3.60322 2.1967 2.1967C3.60322 0.790176 5.51088 0 7.5 0C9.48912 0 11.3968 0.790176 12.8033 2.1967C14.2098 3.60322 15 5.51088 15 7.5ZM7.5 3.75C7.38151 3.75007 7.26434 3.77495 7.15605 3.82306C7.04776 3.87116 6.95075 3.94141 6.87126 4.02929C6.79177 4.11717 6.73157 4.22072 6.69454 4.33328C6.65751 4.44584 6.64447 4.56491 6.65625 4.68281L6.98437 7.97062C6.9954 8.09979 7.0545 8.22011 7.14998 8.30778C7.24546 8.39546 7.37037 8.44411 7.5 8.44411C7.62963 8.44411 7.75454 8.39546 7.85002 8.30778C7.9455 8.22011 8.0046 8.09979 8.01563 7.97062L8.34375 4.68281C8.35553 4.56491 8.34249 4.44584 8.30546 4.33328C8.26843 4.22072 8.20823 4.11717 8.12874 4.02929C8.04925 3.94141 7.95224 3.87116 7.84395 3.82306C7.73566 3.77495 7.61849 3.75007 7.5 3.75ZM7.50187 9.375C7.25323 9.375 7.01478 9.47377 6.83896 9.64959C6.66315 9.8254 6.56437 10.0639 6.56437 10.3125C6.56437 10.5611 6.66315 10.7996 6.83896 10.9754C7.01478 11.1512 7.25323 11.25 7.50187 11.25C7.75052 11.25 7.98897 11.1512 8.16479 10.9754C8.3406 10.7996 8.43937 10.5611 8.43937 10.3125C8.43937 10.0639 8.3406 9.8254 8.16479 9.64959C7.98897 9.47377 7.75052 9.375 7.50187 9.375Z" fill="black"/></g><defs><clipPath><rect width="15" height="15" fill="white"/></clipPath></defs></svg>