<svg xmlns="http://www.w3.org/2000/svg" viewBox="0 0 55.24 21.95"><defs><style>.cls-1{fill:#212121;}.cls-2{fill:#878787;}</style></defs><g id="Layer_2" data-name="Layer 2"><g id="Layer_1-2" data-name="Layer 1"><g id="Suv"><rect class="cls-1" x="13.73" y="17.55" width="24.21" height="1"/><path class="cls-1" d="M5.7,18.55H.91a.91.91,0,0,1-.66-.28A.93.93,0,0,1,0,17.6L.29,12A4.29,4.29,0,0,1,1.36,9.35L2.5,8.08a4.13,4.13,0,0,1,1.9-.93L11.79,6c1-.5,9.76-5.05,13.28-5.52C28.53-.29,43.75.07,46.49.22a1.53,1.53,0,0,1,1.13.61l4.09,5.44a1.79,1.79,0,0,1,.35,1l.37,6.68L52,16.38l-5,2.13-.39-.92,4.48-1.91.32-1.82-.36-6.57a.82.82,0,0,0-.15-.42L46.82,1.43a.5.5,0,0,0-.39-.21c-3.32-.18-18-.47-21.19.22-3.51.48-13,5.42-13.06,5.47L12,7,4.57,8.14a3,3,0,0,0-1.38.66L2.11,10a3.27,3.27,0,0,0-.82,2L1,17.55H5.7Z"/><path class="cls-1" d="M15.6,9.1A.39.39,0,0,1,15.39,9a.46.46,0,0,1-.17-.28L15.05,7a.35.35,0,0,1,.18-.36c.33-.2,8.14-4.75,13.79-4.87,3.83-.1,16.43-.3,17.36,1.26a33.26,33.26,0,0,1,1.95,4.53.35.35,0,0,1,0,.33A.4.4,0,0,1,48,8c-10.41.13-30.55.52-32.27,1.07Zm.22-2,.11,1.15c4-.62,27.55-1,31.51-1a28.53,28.53,0,0,0-1.71-3.9c-.6-.81-9-1.09-16.7-.89C24.07,2.58,17.1,6.39,15.82,7.12Z"/><polygon class="cls-1" points="29.02 8.28 28.27 8.27 28.4 1.97 29.15 1.99 29.02 8.28"/><rect class="cls-1" x="38.21" y="1.67" width="0.75" height="6.45" transform="translate(0.34 11.98) rotate(-17.73)"/><path class="cls-2" d="M26.24,10.67H28"/><rect class="cls-1" x="26.24" y="10.3" width="1.78" height="0.75"/><path class="cls-2" d="M36.57,10.67h1.88"/><rect class="cls-1" x="36.57" y="10.3" width="1.88" height="0.75"/><path class="cls-1" d="M2.16,14.31H.61a.37.37,0,0,1-.38-.37.38.38,0,0,1,.38-.38H1.85A7.81,7.81,0,0,1,3.16,11.5l-2.3,0a.38.38,0,0,1-.38-.37.37.37,0,0,1,.37-.38L4,10.73a.39.39,0,0,1,.34.22.36.36,0,0,1-.06.41,7.94,7.94,0,0,0-1.72,2.57.38.38,0,0,1-.38.38Z"/><path class="cls-1" d="M9.64,21.92A4.92,4.92,0,1,1,14.55,17,4.91,4.91,0,0,1,9.64,21.92Zm0-8.83A3.92,3.92,0,1,0,13.55,17,3.92,3.92,0,0,0,9.64,13.09Z"/><path class="cls-1" d="M9.64,19.2A2.2,2.2,0,1,1,11.83,17,2.19,2.19,0,0,1,9.64,19.2Zm0-3.89A1.7,1.7,0,1,0,11.33,17,1.7,1.7,0,0,0,9.64,15.31Z"/><path class="cls-1" d="M42.25,19.2A2.2,2.2,0,1,1,44.44,17,2.19,2.19,0,0,1,42.25,19.2Zm0-3.89A1.7,1.7,0,1,0,43.94,17,1.7,1.7,0,0,0,42.25,15.31Z"/><path class="cls-1" d="M42.25,22A4.92,4.92,0,1,1,47.16,17,4.92,4.92,0,0,1,42.25,22Zm0-8.83A3.92,3.92,0,1,0,46.16,17,3.92,3.92,0,0,0,42.25,13.12Z"/><path class="cls-1" d="M53.68,13.5H52.1v-.75h1.58a.82.82,0,0,0,.81-.82V7.12a1.05,1.05,0,0,0-1.06-1.06H50.89V5.31h2.54a1.81,1.81,0,0,1,1.81,1.81v4.81A1.57,1.57,0,0,1,53.68,13.5Z"/></g></g></g></svg>